<svg width="15" height="16" viewBox="0 0 15 16" fill="none" xmlns="http://www.w3.org/2000/svg">
<path d="M13.5197 12.2944H12.0395V15.5L8.26406 12.2944H4.63816C3.82179 12.2944 3.1579 11.5898 3.1579 10.7234V4.4394C3.1579 3.573 3.82179 2.86841 4.63816 2.86841H13.5197C14.3361 2.86841 15 3.573 15 4.4394V10.7234C15 11.5898 14.3361 12.2944 13.5197 12.2944Z" fill="#1455AC"/>
<path d="M1.48026 0.5H10.3618C11.1782 0.5 11.8421 1.14914 11.8421 1.94737H2.96052C2.14416 1.94737 1.48026 2.59651 1.48026 3.39474V9.18421C0.663895 9.18421 -2.86102e-06 8.53507 -2.86102e-06 7.73684V1.94737C-2.86102e-06 1.14914 0.663895 0.5 1.48026 0.5Z" fill="#1455AC"/>
</svg>
